<svg xmlns="http://www.w3.org/2000/svg" viewBox="0 0 900 520" fill="none">
  <!-- Shadow -->
  <ellipse cx="450" cy="505" rx="340" ry="14" fill="rgba(0,0,0,0.25)"/>

  <!-- ── REAR WHEEL ── -->
  <circle cx="175" cy="370" r="118" fill="#0d0d10"/>
  <circle cx="175" cy="370" r="100" fill="none" stroke="#1e1e22" stroke-width="3"/>
  <!-- spokes -->
  <line x1="175" y1="370" x2="175" y2="272" stroke="#444" stroke-width="3.5" stroke-linecap="round"/>
  <line x1="175" y1="370" x2="175" y2="272" stroke="#444" stroke-width="3.5" stroke-linecap="round" transform="rotate(36 175 370)"/>
  <line x1="175" y1="370" x2="175" y2="272" stroke="#444" stroke-width="3.5" stroke-linecap="round" transform="rotate(72 175 370)"/>
  <line x1="175" y1="370" x2="175" y2="272" stroke="#444" stroke-width="3.5" stroke-linecap="round" transform="rotate(108 175 370)"/>
  <line x1="175" y1="370" x2="175" y2="272" stroke="#444" stroke-width="3.5" stroke-linecap="round" transform="rotate(144 175 370)"/>
  <line x1="175" y1="370" x2="175" y2="272" stroke="#444" stroke-width="3.5" stroke-linecap="round" transform="rotate(180 175 370)"/>
  <line x1="175" y1="370" x2="175" y2="272" stroke="#444" stroke-width="3.5" stroke-linecap="round" transform="rotate(216 175 370)"/>
  <line x1="175" y1="370" x2="175" y2="272" stroke="#444" stroke-width="3.5" stroke-linecap="round" transform="rotate(252 175 370)"/>
  <line x1="175" y1="370" x2="175" y2="272" stroke="#444" stroke-width="3.5" stroke-linecap="round" transform="rotate(288 175 370)"/>
  <line x1="175" y1="370" x2="175" y2="272" stroke="#444" stroke-width="3.5" stroke-linecap="round" transform="rotate(324 175 370)"/>
  <!-- brake disc -->
  <circle cx="175" cy="370" r="58" fill="none" stroke="#F5B800" stroke-width="6" opacity="0.9"/>
  <circle cx="175" cy="370" r="46" fill="none" stroke="rgba(245,184,0,0.4)" stroke-width="2"/>
  <!-- hub -->
  <circle cx="175" cy="370" r="18" fill="#999"/>
  <circle cx="175" cy="370" r="10" fill="#666"/>

  <!-- ── FRONT WHEEL ── -->
  <circle cx="720" cy="370" r="118" fill="#0d0d10"/>
  <circle cx="720" cy="370" r="100" fill="none" stroke="#1e1e22" stroke-width="3"/>
  <line x1="720" y1="370" x2="720" y2="272" stroke="#444" stroke-width="3.5" stroke-linecap="round"/>
  <line x1="720" y1="370" x2="720" y2="272" stroke="#444" stroke-width="3.5" stroke-linecap="round" transform="rotate(36 720 370)"/>
  <line x1="720" y1="370" x2="720" y2="272" stroke="#444" stroke-width="3.5" stroke-linecap="round" transform="rotate(72 720 370)"/>
  <line x1="720" y1="370" x2="720" y2="272" stroke="#444" stroke-width="3.5" stroke-linecap="round" transform="rotate(108 720 370)"/>
  <line x1="720" y1="370" x2="720" y2="272" stroke="#444" stroke-width="3.5" stroke-linecap="round" transform="rotate(144 720 370)"/>
  <line x1="720" y1="370" x2="720" y2="272" stroke="#444" stroke-width="3.5" stroke-linecap="round" transform="rotate(180 720 370)"/>
  <line x1="720" y1="370" x2="720" y2="272" stroke="#444" stroke-width="3.5" stroke-linecap="round" transform="rotate(216 720 370)"/>
  <line x1="720" y1="370" x2="720" y2="272" stroke="#444" stroke-width="3.5" stroke-linecap="round" transform="rotate(252 720 370)"/>
  <line x1="720" y1="370" x2="720" y2="272" stroke="#444" stroke-width="3.5" stroke-linecap="round" transform="rotate(288 720 370)"/>
  <line x1="720" y1="370" x2="720" y2="272" stroke="#444" stroke-width="3.5" stroke-linecap="round" transform="rotate(324 720 370)"/>
  <circle cx="720" cy="370" r="58" fill="none" stroke="#F5B800" stroke-width="6" opacity="0.9"/>
  <circle cx="720" cy="370" r="46" fill="none" stroke="rgba(245,184,0,0.4)" stroke-width="2"/>
  <circle cx="720" cy="370" r="18" fill="#999"/>
  <circle cx="720" cy="370" r="10" fill="#666"/>

  <!-- ── VÝFUK ── -->
  <path d="M 330 390 Q 420 405 570 385" stroke="#777" stroke-width="20" stroke-linecap="round" fill="none"/>
  <path d="M 330 390 Q 420 405 570 385" stroke="#aaa" stroke-width="10" stroke-linecap="round" fill="none"/>
  <ellipse cx="572" cy="385" rx="14" ry="9" fill="#888"/>
  <ellipse cx="572" cy="385" rx="8" ry="5" fill="#444"/>

  <!-- ── SWINGARM ── -->
  <path d="M 175 370 L 330 285" stroke="#0D1B3E" stroke-width="24" stroke-linecap="round"/>
  <path d="M 178 368 L 330 285" stroke="#1B2D5C" stroke-width="12" stroke-linecap="round"/>

  <!-- ── MOTOR / BLOK ── -->
  <rect x="278" y="272" width="258" height="130" rx="16" fill="#0D1B3E"/>
  <rect x="298" y="290" width="218" height="92" rx="10" fill="#132248"/>
  <!-- hlavy válců -->
  <rect x="312" y="254" width="46" height="24" rx="7" fill="#0D1B3E"/>
  <rect x="370" y="254" width="46" height="24" rx="7" fill="#0D1B3E"/>
  <rect x="428" y="254" width="46" height="24" rx="7" fill="#0D1B3E"/>

  <!-- ── RÁMOVÉ TRUBKY ── -->
  <!-- hlavní páteřní trubka -->
  <path d="M 328 283 C 335 220 380 190 430 180 L 510 176" stroke="#0D1B3E" stroke-width="30" stroke-linecap="round" fill="none"/>
  <path d="M 328 283 C 335 220 380 190 430 180 L 510 176" stroke="#1B2D5C" stroke-width="17" stroke-linecap="round" fill="none"/>
  <!-- spodní down tube -->
  <path d="M 430 180 L 370 274" stroke="#0D1B3E" stroke-width="26" stroke-linecap="round" fill="none"/>
  <path d="M 430 180 L 370 274" stroke="#1B2D5C" stroke-width="14" stroke-linecap="round" fill="none"/>

  <!-- ── NÁDRŽ ── -->
  <path d="M 348 178 C 348 128 382 106 432 104 C 492 102 548 122 552 158 C 555 185 535 206 510 210 L 362 213 C 349 210 345 196 348 178Z" fill="#0D1B3E"/>
  <!-- lesklý vrchol nádrže -->
  <path d="M 378 118 C 398 108 448 107 472 118" stroke="rgba(255,255,255,0.18)" stroke-width="4" fill="none" stroke-linecap="round"/>
  <!-- amber pin stripe -->
  <path d="M 354 202 L 540 202" stroke="#F5B800" stroke-width="4" opacity="0.65"/>

  <!-- ── SEDLO ── -->
  <path d="M 290 212 C 287 193 304 178 326 177 L 510 177 C 496 192 479 200 460 204 L 306 205Z" fill="#1a1a1a"/>
  <path d="M 290 212 C 287 193 304 178 326 177 L 510 177 C 496 192 479 200 460 204 L 306 205Z" fill="none" stroke="#2a2a2a" stroke-width="2"/>

  <!-- ── OCASNÍ SEKCE ── -->
  <path d="M 175 220 C 172 198 192 183 218 182 L 295 180 L 276 222Z" fill="#0D1B3E"/>
  <!-- zadní světlo -->
  <rect x="168" y="192" width="50" height="22" rx="6" fill="#F5B800" opacity="0.92"/>
  <rect x="174" y="197" width="38" height="12" rx="4" fill="#FFCC00" opacity="0.85"/>

  <!-- ── PŘEDNÍ KAPOTÁŽ ── -->
  <path d="M 508 176 C 546 162 604 162 646 188 C 680 208 686 258 676 294 C 666 322 638 338 614 332 C 582 324 557 296 548 268 C 538 238 524 206 508 176Z" fill="#0D1B3E"/>
  <!-- highlight kapotáže -->
  <path d="M 518 182 C 546 168 604 168 640 190" stroke="rgba(255,255,255,0.13)" stroke-width="4" fill="none" stroke-linecap="round"/>
  <!-- amber stripe kapotáže -->
  <path d="M 544 266 C 565 252 610 248 646 260" stroke="#F5B800" stroke-width="4" opacity="0.7" fill="none"/>

  <!-- ── PŘEDNÍ VIDLICE ── -->
  <line x1="672" y1="310" x2="612" y2="215" stroke="#bbb" stroke-width="13" stroke-linecap="round"/>
  <line x1="658" y1="314" x2="598" y2="219" stroke="#bbb" stroke-width="13" stroke-linecap="round"/>
  <line x1="672" y1="310" x2="612" y2="215" stroke="#ddd" stroke-width="6" stroke-linecap="round"/>
  <line x1="658" y1="314" x2="598" y2="219" stroke="#ddd" stroke-width="6" stroke-linecap="round"/>

  <!-- ── ŘIDÍTKA ── -->
  <path d="M 604 212 L 584 196 C 574 188 558 188 550 196 L 534 210" stroke="#ccc" stroke-width="9" stroke-linecap="round" fill="none"/>
  <circle cx="534" cy="210" r="11" fill="#222"/>
  <circle cx="604" cy="212" r="11" fill="#222"/>

  <!-- ── SVĚTLOMET ── -->
  <circle cx="682" cy="272" r="44" fill="rgba(254,243,199,0.15)"/>
  <circle cx="682" cy="272" r="36" fill="#fef9e7" opacity="0.85"/>
  <circle cx="682" cy="272" r="26" fill="white" opacity="0.95"/>
  <!-- amber ring -->
  <circle cx="682" cy="272" r="44" fill="none" stroke="#F5B800" stroke-width="3.5" opacity="0.6"/>
  <!-- glow rays -->
  <circle cx="682" cy="272" r="58" fill="none" stroke="#F5B800" stroke-width="1.5" opacity="0.2"/>

  <!-- ── JEZDEC ── -->
  <!-- tělo — nakloněné dopředu -->
  <ellipse cx="408" cy="148" rx="50" ry="82" fill="#0a1530" transform="rotate(-18 408 148)"/>
  <!-- paže -->
  <path d="M 440 128 C 470 120 516 128 536 148" stroke="#0a1530" stroke-width="22" stroke-linecap="round" fill="none"/>
  <path d="M 440 128 C 470 120 516 128 536 148" stroke="#132248" stroke-width="10" stroke-linecap="round" fill="none"/>

  <!-- ── HELMA ── -->
  <circle cx="394" cy="82" r="50" fill="#0D1B3E"/>
  <!-- helma highlight -->
  <path d="M 358 55 C 372 40 420 40 432 54" stroke="rgba(255,255,255,0.20)" stroke-width="5" fill="none" stroke-linecap="round"/>
  <!-- hledí amber -->
  <path d="M 358 80 C 364 60 422 60 430 80" stroke="#F5B800" stroke-width="8" fill="none" stroke-linecap="round"/>
  <!-- hledí odlesk -->
  <path d="M 367 70 C 378 62 412 62 422 70" stroke="rgba(255,255,255,0.35)" stroke-width="2.5" fill="none" stroke-linecap="round"/>
</svg>
