<?xml version="1.0" encoding="UTF-8"?>
<!DOCTYPE svg PUBLIC "-//W3C//DTD SVG 1.1//EN" "http://www.w3.org/Graphics/SVG/1.1/DTD/svg11.dtd">
<!-- Creator: CorelDRAW X7 -->
<svg xmlns="http://www.w3.org/2000/svg" xml:space="preserve" version="1.1" style="shape-rendering:geometricPrecision; text-rendering:geometricPrecision; image-rendering:optimizeQuality; fill-rule:evenodd; clip-rule:evenodd"
viewBox="3400 5100 22300 5600"
 xmlns:xlink="http://www.w3.org/1999/xlink">
 <defs>
  <style type="text/css">
   <![CDATA[
    .fil1 {fill:black}
    .fil0 {fill:black;fill-rule:nonzero}
   ]]>
  </style>
 </defs>
 <g id="Vrstva_x0020_1">
  <metadata id="CorelCorpID_0Corel-Layer"/>
  <path class="fil0" d="M8698 7434l1100 -1945 311 0 320 1945 -252 0 -91 -559 -790 0 -311 559 -287 0zm713 -760l643 0 -75 -489c-31,-193 -50,-355 -58,-484 -45,111 -110,243 -196,396l-314 577z"/>
  <path id="1" class="fil0" d="M11107 5489l260 0 -250 1196c-21,99 -31,173 -31,221 0,104 41,188 123,251 82,63 186,95 310,95 99,0 191,-22 276,-68 85,-45 152,-112 202,-201 50,-89 94,-229 134,-423l225 -1071 258 0 -240 1141c-40,194 -93,348 -159,461 -67,114 -158,205 -275,273 -117,68 -253,103 -408,103 -146,0 -274,-25 -381,-73 -107,-49 -188,-116 -241,-201 -54,-85 -80,-182 -80,-291 0,-68 18,-185 54,-351l223 -1062z"/>
  <polygon id="2" class="fil0" points="13158,7434 13520,5709 12866,5709 12913,5489 14457,5489 14410,5709 13778,5709 13416,7434 "/>
  <path id="3" class="fil0" d="M14386 6620c0,-347 100,-627 300,-842 201,-214 444,-321 730,-321 243,0 441,78 593,236 153,158 229,369 229,635 0,189 -38,365 -115,526 -58,121 -131,226 -218,314 -88,88 -182,156 -282,203 -132,64 -273,96 -422,96 -156,0 -298,-37 -426,-112 -128,-74 -225,-178 -290,-311 -66,-133 -99,-274 -99,-424zm252 12c0,114 24,219 71,315 48,96 119,170 213,224 94,54 193,81 297,81 101,0 196,-23 287,-71 90,-47 171,-113 243,-198 71,-84 128,-188 169,-312 41,-123 62,-245 62,-364 0,-194 -54,-348 -163,-463 -109,-115 -243,-173 -403,-173 -204,0 -385,87 -541,261 -157,174 -235,407 -235,700z"/>
  <path id="4" class="fil0" d="M16442 6807l255 -25 -3 68c0,75 17,144 52,207 34,62 91,110 170,144 80,34 174,51 284,51 155,0 273,-34 355,-102 82,-69 123,-146 123,-234 0,-61 -22,-118 -65,-168 -45,-50 -165,-117 -362,-202 -153,-66 -257,-117 -312,-152 -88,-57 -152,-120 -194,-188 -41,-67 -62,-144 -62,-231 0,-100 28,-190 83,-270 54,-81 135,-143 240,-185 106,-42 225,-63 357,-63 159,0 292,26 401,79 109,53 187,123 236,212 50,88 74,173 74,253 0,8 0,21 0,40l-252 19c0,-55 -5,-97 -15,-129 -18,-53 -45,-99 -82,-136 -37,-37 -88,-67 -152,-90 -65,-23 -138,-34 -218,-34 -141,0 -251,32 -329,96 -60,49 -90,113 -90,194 0,48 12,91 37,128 25,38 69,75 134,111 45,26 154,77 326,153 140,62 235,110 288,146 71,47 125,103 163,170 38,67 57,143 57,228 0,105 -32,202 -96,290 -64,90 -153,158 -266,207 -113,48 -242,73 -388,73 -221,0 -400,-48 -539,-144 -139,-95 -210,-268 -210,-516zm1431 -1801l-353 364 -267 0 -163 -364 210 0 101 235 222 -235 250 0z"/>
  <polygon id="5" class="fil0" points="18183,7434 18590,5489 18848,5489 18651,6428 19713,5489 20079,5489 19173,6281 19833,7434 19545,7434 18983,6447 18572,6806 18441,7434 "/>
  <path id="6" class="fil0" d="M20122 6620c0,-347 101,-627 301,-842 201,-214 444,-321 730,-321 243,0 440,78 593,236 153,158 229,369 229,635 0,189 -38,365 -115,526 -58,121 -131,226 -218,314 -88,88 -182,156 -282,203 -132,64 -273,96 -422,96 -156,0 -298,-37 -426,-112 -128,-74 -225,-178 -290,-311 -66,-133 -100,-274 -100,-424zm253 12c0,114 24,219 71,315 48,96 119,170 213,224 94,54 193,81 297,81 101,0 196,-23 287,-71 90,-47 171,-113 243,-198 71,-84 128,-188 169,-312 41,-123 62,-245 62,-364 0,-194 -54,-348 -163,-463 -109,-115 -243,-173 -403,-173 -205,0 -385,87 -541,261 -157,174 -235,407 -235,700z"/>
  <polygon id="7" class="fil0" points="22105,7434 22513,5489 22771,5489 22409,7214 23412,7214 23366,7434 "/>
  <path id="8" class="fil0" d="M23443 7434l1100 -1945 311 0 320 1945 -252 0 -91 -559 -790 0 -311 559 -287 0zm713 -760l643 0 -75 -489c-31,-193 -50,-355 -58,-484 -45,111 -110,243 -196,396l-314 577z"/>
  <polygon id="9" class="fil0" points="10419,10469 10047,10469 9522,9162 9248,10469 8876,10469 9284,8524 9656,8524 10183,9825 10455,8524 10826,8524 "/>
  <polygon id="10" class="fil0" points="10827,10469 11235,8524 12675,8524 12607,8850 11566,8850 11470,9290 12479,9290 12411,9616 11399,9616 11284,10143 12414,10143 12346,10469 "/>
  <path id="11" class="fil0" d="M14046 9771l402 61c-78,218 -196,384 -353,499 -157,116 -341,173 -552,173 -237,0 -423,-71 -556,-215 -134,-143 -201,-352 -201,-625 0,-221 45,-423 134,-607 90,-184 214,-325 373,-422 159,-97 332,-146 519,-146 211,0 381,56 511,169 130,113 206,267 229,462l-383 37c-22,-114 -62,-196 -123,-247 -60,-51 -140,-76 -240,-76 -110,0 -213,33 -309,101 -95,67 -171,173 -228,316 -58,143 -86,286 -86,429 0,157 37,277 111,363 74,85 167,127 277,127 104,0 198,-33 283,-101 86,-67 150,-166 192,-298zm-182 -1578l234 -237 312 0 -394 400 -356 0 -162 -400 264 0 102 237z"/>
  <path id="12" class="fil0" d="M15877 10040l-772 0 -235 429 -415 0 1098 -1945 453 0 314 1945 -380 0 -63 -429zm-48 -326l-116 -783 -429 783 545 0z"/>
  <path id="13" class="fil0" d="M16623 9842l380 -20c5,121 26,203 62,245 59,69 167,103 324,103 131,0 226,-23 284,-70 59,-48 88,-104 88,-171 0,-57 -24,-106 -72,-146 -33,-29 -126,-77 -276,-142 -151,-66 -261,-121 -330,-164 -70,-44 -124,-101 -164,-172 -40,-70 -60,-152 -60,-245 0,-165 59,-301 178,-409 118,-108 290,-162 515,-162 228,0 404,53 529,160 126,108 195,250 207,428l-383 17c-10,-92 -44,-163 -101,-213 -57,-50 -142,-75 -255,-75 -110,0 -189,20 -236,59 -47,39 -71,88 -71,147 0,57 22,102 65,139 43,37 139,88 287,153 224,97 366,175 427,235 91,89 136,202 136,342 0,172 -67,319 -203,440 -136,122 -325,183 -567,183 -167,0 -312,-28 -435,-84 -122,-56 -208,-134 -259,-234 -50,-99 -74,-214 -70,-344z"/>
  <rect class="fil1" transform="matrix(1.94873 -0 -1.0464 1.87961 4918.19 6259.37)" width="1588" height="194"/>
  <rect class="fil1" transform="matrix(1.0901 -0 -1.05469 1.87961 5864.2 6996.89)" width="1588" height="194"/>
  <rect class="fil1" transform="matrix(2.95491 -0 -1.09158 1.87961 3758.7 5492.22)" width="1588" height="194"/>
 </g>
</svg>
